<svg width="81" height="81" viewBox="0 0 81 81" fill="none" xmlns="http://www.w3.org/2000/svg">
<g clip-path="url(#clip0)">
<path d="M81 40.5798C81 47.9238 79.191 54.7008 75.573 60.9108C71.955 67.1208 67.041 72.0348 60.831 75.6528C54.621 79.2708 47.844 81.0798 40.5 81.0798C33.156 81.0798 26.379 79.2708 20.169 75.6528C13.959 72.0348 9.045 67.1208 5.427 60.9108C1.809 54.7008 0 47.9238 0 40.5798C0 33.2358 1.809 26.4588 5.427 20.2488C9.045 14.0388 13.959 9.12483 20.169 5.50683C26.379 1.88883 33.156 0.079834 40.5 0.079834C47.844 0.079834 54.621 1.88883 60.831 5.50683C67.041 9.12483 71.955 14.0388 75.573 20.2488C79.191 26.4588 81 33.2358 81 40.5798ZM53.541 59.3718L59.292 53.6208L46.251 40.5798L59.292 27.5388L53.541 21.7878L40.5 34.8288L27.459 21.7878L21.708 27.5388L34.749 40.5798L21.708 53.6208L27.459 59.3718L40.5 46.3308L53.541 59.3718Z" fill="#FF0000"/>
</g>
<defs>
<clipPath id="clip0">
<rect width="81" height="81" fill="white"/>
</clipPath>
</defs>
</svg>
