<svg width="82" height="82" viewBox="0 0 82 82" fill="none" xmlns="http://www.w3.org/2000/svg">
<path d="M41 0.375C18.5 0.375 0.375 18.5 0.375 41C0.375 63.5 18.5 81.625 41 81.625C63.5 81.625 81.625 63.5 81.625 41C81.625 36.6312 81.0375 32.2719 79.475 28.2063L74.4 33.1875C75.025 35.6875 75.3781 38.1937 75.3781 41C75.3781 60.0688 60.0719 75.375 41.0031 75.375C21.9344 75.375 6.625 60.0688 6.625 41C6.625 21.9312 21.9312 6.625 41 6.625C50.375 6.625 58.7969 10.3594 64.7312 16.2937L69.125 11.9C61.9375 4.70625 51.9375 0.375 41 0.375ZM76.2531 13.7531L41 49.0094L27.6219 35.6281L23.1281 40.1219L38.7531 55.7469L41 57.8937L43.2469 55.7469L80.7469 18.2469L76.2531 13.7531Z" fill="#67B372"/>
</svg>
